D:\school\WTK\thesis\model\3dpredictsim\Results\debug_batch\Pog_s1_tmt_aCst_d00_k800_ig24_pas_GRF.mot
nRows=12
nColumns=19

name D:\school\WTK\thesis\model\3dpredictsim\Results\debug_batch\Pog_s1_tmt_aCst_d00_k800_ig24_pas_GRF.mot
datacolumns 19
datarows 12
range 0.0000000000 0.1224494068
endheader
time 	ground_force_vx	ground_force_vy	ground_force_vz	ground_force_px	ground_force_py	ground_force_pz	1_ground_force_vx	1_ground_force_vy	1_ground_force_vz	1_ground_force_px	1_ground_force_py	1_ground_force_pz	ground_torque_x	ground_torque_y	ground_torque_z	1_ground_torque_x	1_ground_torque_y	1_ground_torque_z
        0.0000000000	      -94.8475734412	       89.0747567248	       42.1707341537	        0.1696845922	        0.0000000000	        0.0376704584	       95.9582369747	      476.7091228707	       -5.5078129079	       -0.3217743773	        0.0000000000	       -0.0347308360	        0.0000000000	        0.0000000000	        0.0000000000	        0.0000000000	        0.0000000000	        0.0000000000	
        0.0111317643	      -89.8255211776	      188.6272796952	       77.4192486167	        0.1758035214	        0.0000000000	        0.0358893692	       77.0565337970	      394.1481031932	      -10.3740051935	       -0.3176364155	        0.0000000000	       -0.0334512563	        0.0000000000	        0.0000000000	        0.0000000000	        0.0000000000	        0.0000000000	        0.0000000000	
        0.0222635285	      -46.5403449658	      345.6094755891	       17.4776980194	        0.1798931520	        0.0000000000	        0.0340970465	       53.6190961707	      300.7564293560	       -8.1118043638	       -0.3109423622	        0.0000000000	       -0.0307727142	        0.0000000000	        0.0000000000	        0.0000000000	        0.0000000000	        0.0000000000	        0.0000000000	
        0.0333952928	      -50.4449486611	      513.9603144423	       -2.2662408249	        0.1854515102	        0.0000000000	        0.0351338456	       25.0413288179	      199.1761747101	       -6.0660564502	       -0.2984502476	        0.0000000000	       -0.0250450374	        0.0000000000	        0.0000000000	        0.0000000000	        0.0000000000	        0.0000000000	        0.0000000000	
        0.0445270570	      -84.9441766509	      692.0036890433	       -9.6863966744	        0.1935552064	        0.0000000000	        0.0375988118	        6.6477264954	      140.1075650455	      -10.4436586673	       -0.2865992301	        0.0000000000	       -0.0190144114	        0.0000000000	        0.0000000000	        0.0000000000	        0.0000000000	        0.0000000000	        0.0000000000	
        0.0556588213	     -106.7581572194	      800.9609838121	      -12.7087380620	        0.1991432899	        0.0000000000	        0.0391872904	        1.6107762396	      109.0634933492	      -11.5117141405	       -0.2864963828	        0.0000000000	       -0.0192539345	        0.0000000000	        0.0000000000	        0.0000000000	        0.0000000000	        0.0000000000	        0.0000000000	
        0.0667905855	     -110.9360713145	      838.7867946752	      -13.4872779434	        0.2029964745	        0.0000000000	        0.0401359329	       -2.1416128493	       71.3564141661	      -10.7271352492	       -0.2860113865	        0.0000000000	       -0.0193251609	        0.0000000000	        0.0000000000	        0.0000000000	        0.0000000000	        0.0000000000	        0.0000000000	
        0.0779223498	     -105.9288198922	      834.3993675918	      -13.5479094015	        0.2061509099	        0.0000000000	        0.0406911167	       -8.0913510020	       29.5235583474	       -5.7980731759	       -0.2863474257	        0.0000000000	       -0.0191569748	        0.0000000000	        0.0000000000	        0.0000000000	        0.0000000000	        0.0000000000	        0.0000000000	
        0.0890541141	      -96.8963642036	      816.4900129735	      -13.8572750476	        0.2094318322	        0.0000000000	        0.0409645845	        0.1122146981	       -0.1113994054	        0.0025016772	        0.0000000000	        0.0000000000	        0.0000000000	        0.0000000000	        0.0000000000	        0.0000000000	        0.0000000000	        0.0000000000	        0.0000000000	
        0.1001858783	      -84.8620917289	      787.9706163639	      -14.5571400186	        0.2128571436	        0.0000000000	        0.0410766499	        0.0001732216	       -0.0001406838	       -0.0000098690	        0.0000000000	        0.0000000000	        0.0000000000	        0.0000000000	        0.0000000000	        0.0000000000	        0.0000000000	        0.0000000000	        0.0000000000	
        0.1113176426	      -74.0531325476	      755.8105631789	      -15.0005233838	        0.2168934340	        0.0000000000	        0.0410905714	        0.0000832774	       -0.0000587615	       -0.0000061896	        0.0000000000	        0.0000000000	        0.0000000000	        0.0000000000	        0.0000000000	        0.0000000000	        0.0000000000	        0.0000000000	        0.0000000000	
        0.1224494068	      -64.6343364799	      725.2859260893	      -15.2075878554	        0.2214366034	        0.0000000000	        0.0409941359	        0.0008664393	       -0.0005476482	       -0.0000716595	        0.0000000000	        0.0000000000	        0.0000000000	        0.0000000000	        0.0000000000	        0.0000000000	        0.0000000000	        0.0000000000	        0.0000000000	
